<?xml version="1.0" encoding="UTF-8"?>
<svg xmlns="http://www.w3.org/2000/svg" xmlns:xlink="http://www.w3.org/1999/xlink" width="70px" height="70px" viewBox="0 0 70 70" version="1.1">
<g id="surface1">
<path style=" stroke:none;fill-rule:nonzero;fill:rgb(33.333333%,38.823529%,90.196078%);fill-opacity:1;" d="M 53.59375 24.882812 C 53.59375 31.785156 53.59375 38.6875 53.59375 45.800781 C 52.464844 46.433594 51.335938 47.0625 50.175781 47.714844 C 49.324219 48.214844 49.324219 48.214844 48.472656 48.714844 C 47.703125 49.171875 46.925781 49.617188 46.152344 50.066406 C 46 50.152344 45.847656 50.238281 45.691406 50.328125 C 45.382812 50.507812 45.070312 50.6875 44.761719 50.867188 C 43.867188 51.378906 42.972656 51.894531 42.082031 52.410156 C 41.394531 52.808594 40.707031 53.203125 40.019531 53.597656 C 39.777344 53.738281 39.535156 53.878906 39.296875 54.015625 C 38.992188 54.191406 38.691406 54.363281 38.390625 54.539062 C 37.617188 54.984375 36.847656 55.4375 36.089844 55.910156 C 35.820312 56.054688 35.820312 56.054688 35.546875 56.054688 C 35.546875 49.152344 35.546875 42.25 35.546875 35.136719 C 36.359375 34.6875 37.171875 34.234375 38.007812 33.769531 C 38.535156 33.464844 39.058594 33.164062 39.578125 32.855469 C 39.859375 32.691406 40.140625 32.527344 40.421875 32.363281 C 40.566406 32.277344 40.707031 32.195312 40.855469 32.109375 C 41.585938 31.683594 42.316406 31.261719 43.050781 30.839844 C 43.195312 30.753906 43.34375 30.667969 43.496094 30.582031 C 43.796875 30.410156 44.09375 30.234375 44.394531 30.0625 C 45.285156 29.550781 46.171875 29.039062 47.0625 28.527344 C 47.746094 28.128906 48.433594 27.734375 49.121094 27.339844 C 49.363281 27.199219 49.605469 27.058594 49.84375 26.921875 C 50.148438 26.746094 50.449219 26.574219 50.75 26.398438 C 51.523438 25.953125 52.292969 25.5 53.050781 25.027344 C 53.320312 24.882812 53.320312 24.882812 53.59375 24.882812 Z M 53.59375 24.882812 "/>
<path style=" stroke:none;fill-rule:nonzero;fill:rgb(24.313725%,47.058824%,89.803922%);fill-opacity:1;" d="M 16.40625 24.882812 C 16.894531 25.078125 17.304688 25.261719 17.753906 25.519531 C 17.878906 25.589844 18.007812 25.660156 18.136719 25.734375 C 18.414062 25.894531 18.6875 26.054688 18.960938 26.21875 C 19.636719 26.617188 20.257812 26.960938 21.015625 27.183594 C 21.800781 27.445312 22.425781 27.671875 22.832031 28.4375 C 23.089844 29.636719 23.011719 30.925781 22.945312 32.140625 C 22.820312 33.371094 22.820312 33.371094 23.175781 34.5 C 23.507812 34.726562 23.828125 34.855469 24.199219 35 C 24.496094 35.171875 24.785156 35.347656 25.078125 35.527344 C 25.3125 35.664062 25.546875 35.800781 25.78125 35.9375 C 26.023438 36.078125 26.261719 36.21875 26.503906 36.363281 C 26.65625 36.449219 26.808594 36.539062 26.964844 36.632812 C 27.105469 36.710938 27.242188 36.792969 27.386719 36.875 C 27.769531 37.089844 27.769531 37.089844 28.300781 37.050781 C 28.347656 35.335938 28.390625 33.621094 28.4375 31.855469 C 29.359375 32.164062 29.359375 32.164062 29.746094 32.398438 C 31.300781 33.335938 32.875 34.234375 34.453125 35.136719 C 34.453125 42.039062 34.453125 48.941406 34.453125 56.054688 C 33.945312 55.851562 33.507812 55.648438 33.035156 55.382812 C 32.828125 55.265625 32.828125 55.265625 32.613281 55.144531 C 32.464844 55.0625 32.316406 54.980469 32.164062 54.890625 C 32.007812 54.804688 31.855469 54.71875 31.695312 54.628906 C 30.769531 54.105469 29.84375 53.574219 28.925781 53.03125 C 28.066406 52.519531 27.195312 52.019531 26.328125 51.515625 C 26.175781 51.429688 26.023438 51.34375 25.867188 51.253906 C 25.402344 50.984375 24.9375 50.71875 24.472656 50.449219 C 23.875 50.105469 23.277344 49.761719 22.679688 49.414062 C 22.53125 49.332031 22.386719 49.246094 22.238281 49.160156 C 21.066406 48.484375 19.898438 47.804688 18.730469 47.121094 C 18.605469 47.046875 18.480469 46.972656 18.351562 46.898438 C 18.242188 46.835938 18.132812 46.769531 18.019531 46.707031 C 17.484375 46.398438 16.945312 46.101562 16.40625 45.800781 C 16.40625 38.898438 16.40625 31.996094 16.40625 24.882812 Z M 16.40625 24.882812 "/>
<path style=" stroke:none;fill-rule:nonzero;fill:rgb(15.686275%,54.901961%,89.803922%);fill-opacity:1;" d="M 35.191406 13.625 C 35.59375 13.832031 35.988281 14.046875 36.382812 14.273438 C 36.464844 14.320312 36.542969 14.367188 36.625 14.414062 C 36.878906 14.558594 37.132812 14.703125 37.382812 14.851562 C 37.550781 14.945312 37.714844 15.039062 37.878906 15.136719 C 38.210938 15.324219 38.539062 15.515625 38.871094 15.707031 C 39.675781 16.167969 40.480469 16.628906 41.289062 17.089844 C 41.113281 17.613281 40.949219 17.652344 40.472656 17.910156 C 40.332031 17.988281 40.191406 18.066406 40.042969 18.148438 C 39.890625 18.230469 39.738281 18.3125 39.582031 18.398438 C 39.261719 18.570312 38.949219 18.746094 38.632812 18.917969 C 38.398438 19.046875 38.398438 19.046875 38.160156 19.175781 C 37.628906 19.472656 37.105469 19.777344 36.582031 20.089844 C 35.628906 20.65625 34.667969 21.210938 33.710938 21.765625 C 33.558594 21.851562 33.40625 21.9375 33.25 22.027344 C 32.941406 22.207031 32.628906 22.386719 32.320312 22.566406 C 31.425781 23.078125 30.53125 23.59375 29.640625 24.109375 C 28.949219 24.507812 28.261719 24.90625 27.570312 25.300781 C 27.328125 25.441406 27.085938 25.582031 26.839844 25.722656 C 26.535156 25.898438 26.230469 26.074219 25.925781 26.25 C 25.71875 26.367188 25.71875 26.367188 25.503906 26.492188 C 25.375 26.566406 25.242188 26.640625 25.109375 26.71875 C 24.695312 26.964844 24.300781 27.230469 23.914062 27.515625 C 23.511719 27.671875 23.246094 27.589844 22.832031 27.480469 C 22.421875 27.285156 22.421875 27.285156 21.988281 27.03125 C 21.910156 26.988281 21.828125 26.941406 21.75 26.894531 C 21.496094 26.75 21.246094 26.601562 20.996094 26.457031 C 20.824219 26.355469 20.648438 26.253906 20.476562 26.15625 C 19.296875 25.46875 18.117188 24.777344 16.953125 24.0625 C 17.421875 23.671875 17.894531 23.351562 18.425781 23.050781 C 18.578125 22.964844 18.734375 22.875 18.890625 22.789062 C 18.972656 22.742188 19.054688 22.695312 19.136719 22.648438 C 19.570312 22.40625 20 22.160156 20.433594 21.914062 C 20.5625 21.839844 20.5625 21.839844 20.699219 21.765625 C 21.511719 21.304688 22.316406 20.835938 23.121094 20.363281 C 24.25 19.703125 25.375 19.046875 26.507812 18.398438 C 26.652344 18.3125 26.800781 18.226562 26.953125 18.140625 C 27.703125 17.707031 28.457031 17.273438 29.210938 16.839844 C 29.359375 16.753906 29.507812 16.667969 29.664062 16.578125 C 29.960938 16.410156 30.257812 16.238281 30.554688 16.066406 C 31.285156 15.648438 32.007812 15.222656 32.722656 14.777344 C 32.859375 14.695312 33 14.609375 33.140625 14.523438 C 33.398438 14.363281 33.65625 14.203125 33.914062 14.039062 C 34.03125 13.96875 34.144531 13.898438 34.261719 13.824219 C 34.414062 13.730469 34.414062 13.730469 34.566406 13.632812 C 34.863281 13.535156 34.863281 13.535156 35.191406 13.625 Z M 35.191406 13.625 "/>
<path style=" stroke:none;fill-rule:nonzero;fill:rgb(25.098039%,46.27451%,89.803922%);fill-opacity:1;" d="M 47.238281 20.566406 C 47.347656 20.636719 47.460938 20.707031 47.578125 20.78125 C 47.746094 20.871094 47.910156 20.957031 48.078125 21.042969 C 48.273438 21.152344 48.46875 21.261719 48.664062 21.371094 C 48.769531 21.429688 48.871094 21.488281 48.980469 21.546875 C 50.351562 22.316406 51.699219 23.121094 53.046875 23.925781 C 52.703125 24.3125 52.324219 24.535156 51.875 24.789062 C 51.71875 24.875 51.566406 24.960938 51.40625 25.050781 C 51.324219 25.097656 51.242188 25.144531 51.15625 25.191406 C 50.722656 25.4375 50.285156 25.683594 49.851562 25.933594 C 49.761719 25.980469 49.671875 26.03125 49.582031 26.082031 C 48.769531 26.546875 47.957031 27.015625 47.152344 27.488281 C 45.28125 28.582031 43.402344 29.664062 41.523438 30.746094 C 41.222656 30.921875 40.925781 31.09375 40.625 31.265625 C 40.328125 31.433594 40.035156 31.605469 39.738281 31.773438 C 38.984375 32.207031 38.234375 32.648438 37.488281 33.101562 C 37.339844 33.191406 37.191406 33.285156 37.035156 33.375 C 36.75 33.550781 36.464844 33.722656 36.183594 33.902344 C 36.054688 33.976562 35.925781 34.054688 35.796875 34.132812 C 35.683594 34.203125 35.574219 34.269531 35.460938 34.339844 C 35.136719 34.453125 35.136719 34.453125 34.796875 34.359375 C 34.683594 34.300781 34.570312 34.242188 34.453125 34.179688 C 34.289062 34.09375 34.289062 34.09375 34.121094 34.003906 C 34.003906 33.941406 33.890625 33.875 33.769531 33.808594 C 33.640625 33.734375 33.511719 33.660156 33.378906 33.585938 C 33.242188 33.507812 33.105469 33.429688 32.964844 33.351562 C 32.828125 33.269531 32.6875 33.191406 32.542969 33.109375 C 32.261719 32.949219 31.984375 32.789062 31.703125 32.628906 C 31.457031 32.488281 31.210938 32.347656 30.960938 32.207031 C 30.667969 32.039062 30.378906 31.871094 30.085938 31.703125 C 30 31.652344 29.914062 31.605469 29.828125 31.554688 C 29.597656 31.417969 29.597656 31.417969 29.257812 31.171875 C 29.257812 31.035156 29.257812 30.902344 29.257812 30.761719 C 29.566406 30.546875 29.867188 30.363281 30.199219 30.179688 C 30.351562 30.09375 30.351562 30.09375 30.507812 30.003906 C 30.738281 29.871094 30.96875 29.742188 31.203125 29.609375 C 31.75 29.300781 32.292969 28.984375 32.835938 28.671875 C 33.292969 28.40625 33.75 28.144531 34.203125 27.878906 C 35.109375 27.359375 36.011719 26.839844 36.914062 26.320312 C 37.210938 26.148438 37.507812 25.976562 37.804688 25.804688 C 37.949219 25.722656 38.097656 25.636719 38.246094 25.550781 C 39.578125 24.78125 39.578125 24.78125 40.023438 24.523438 C 40.320312 24.355469 40.613281 24.183594 40.90625 24.015625 C 41.597656 23.617188 42.285156 23.21875 42.976562 22.824219 C 43.21875 22.683594 43.460938 22.542969 43.707031 22.402344 C 44.011719 22.226562 44.316406 22.050781 44.621094 21.875 C 44.761719 21.796875 44.898438 21.71875 45.042969 21.632812 C 45.171875 21.558594 45.300781 21.484375 45.4375 21.40625 C 45.769531 21.210938 46.085938 20.996094 46.40625 20.773438 C 46.84375 20.5 46.84375 20.5 47.238281 20.566406 Z M 47.238281 20.566406 "/>
<path style=" stroke:none;fill-rule:nonzero;fill:rgb(20.392157%,50.588235%,89.803922%);fill-opacity:1;" d="M 42.929688 18.046875 C 43.300781 18.226562 43.300781 18.226562 43.667969 18.449219 C 43.800781 18.527344 43.933594 18.609375 44.070312 18.691406 C 44.277344 18.816406 44.277344 18.816406 44.484375 18.945312 C 44.625 19.027344 44.765625 19.113281 44.910156 19.199219 C 45.253906 19.40625 45.59375 19.613281 45.9375 19.824219 C 45.761719 20.347656 45.597656 20.386719 45.121094 20.644531 C 44.980469 20.722656 44.839844 20.800781 44.691406 20.882812 C 44.460938 21.003906 44.460938 21.003906 44.226562 21.132812 C 43.910156 21.304688 43.597656 21.480469 43.28125 21.652344 C 43.046875 21.78125 43.046875 21.78125 42.808594 21.910156 C 42.277344 22.207031 41.753906 22.511719 41.230469 22.824219 C 40.277344 23.390625 39.316406 23.945312 38.359375 24.5 C 38.207031 24.585938 38.054688 24.671875 37.898438 24.761719 C 37.589844 24.941406 37.277344 25.121094 36.96875 25.300781 C 36.074219 25.8125 35.179688 26.328125 34.285156 26.847656 C 33.605469 27.238281 32.921875 27.632812 32.238281 28.027344 C 32 28.164062 31.761719 28.300781 31.523438 28.4375 C 31.226562 28.605469 30.929688 28.777344 30.632812 28.945312 C 30.359375 29.105469 30.085938 29.265625 29.816406 29.429688 C 29.394531 29.667969 29.394531 29.667969 28.902344 29.878906 C 28.039062 30.269531 28.039062 30.269531 27.523438 31.023438 C 27.371094 31.796875 27.410156 32.574219 27.4375 33.359375 C 27.441406 33.597656 27.441406 33.835938 27.441406 34.074219 C 27.445312 34.65625 27.460938 35.238281 27.480469 35.820312 C 27.097656 35.636719 26.71875 35.449219 26.339844 35.253906 C 25.992188 35.070312 25.640625 34.917969 25.277344 34.769531 C 24.714844 34.515625 24.183594 34.261719 23.789062 33.769531 C 23.464844 32.898438 23.597656 31.933594 23.660156 31.027344 C 23.671875 30.773438 23.679688 30.523438 23.6875 30.273438 C 23.710938 29.660156 23.746094 29.050781 23.789062 28.4375 C 23.945312 28.351562 24.097656 28.265625 24.257812 28.179688 C 25.589844 27.445312 26.90625 26.691406 28.21875 25.921875 C 29.289062 25.292969 30.367188 24.675781 31.445312 24.0625 C 32.773438 23.304688 34.097656 22.542969 35.414062 21.769531 C 36.59375 21.082031 37.773438 20.394531 38.957031 19.71875 C 39.582031 19.359375 40.203125 19.003906 40.816406 18.625 C 40.902344 18.574219 40.992188 18.519531 41.082031 18.464844 C 41.300781 18.332031 41.519531 18.199219 41.734375 18.0625 C 42.207031 17.871094 42.4375 17.929688 42.929688 18.046875 Z M 42.929688 18.046875 "/>
<path style=" stroke:none;fill-rule:nonzero;fill:rgb(30.980392%,40.784314%,90.196078%);fill-opacity:1;" d="M 10.390625 52.226562 C 11.230469 52.449219 11.925781 52.894531 12.664062 53.335938 C 12.957031 53.511719 13.253906 53.6875 13.550781 53.859375 C 13.703125 53.949219 13.859375 54.042969 14.015625 54.136719 C 14.730469 54.554688 15.445312 54.960938 16.164062 55.371094 C 17.574219 56.171875 18.980469 56.984375 20.378906 57.800781 C 21.820312 58.644531 23.261719 59.476562 24.707031 60.308594 C 25.449219 60.734375 26.191406 61.164062 26.933594 61.59375 C 27.226562 61.761719 27.515625 61.929688 27.808594 62.097656 C 29.292969 62.953125 30.78125 63.8125 32.265625 64.667969 C 32.265625 65.167969 32.117188 65.363281 31.855469 65.789062 C 31.78125 65.910156 31.703125 66.035156 31.625 66.160156 C 31.566406 66.253906 31.507812 66.347656 31.445312 66.445312 C 30.292969 65.84375 29.15625 65.222656 28.039062 64.558594 C 27.152344 64.03125 26.261719 63.515625 25.371094 63 C 25.21875 62.914062 25.066406 62.828125 24.910156 62.738281 C 24.601562 62.558594 24.289062 62.378906 23.980469 62.199219 C 23.230469 61.769531 22.484375 61.339844 21.738281 60.90625 C 20.847656 60.394531 19.953125 59.878906 19.0625 59.367188 C 17.496094 58.460938 15.929688 57.554688 14.367188 56.644531 C 12.773438 55.710938 11.171875 54.789062 9.570312 53.867188 C 9.84375 53.320312 10.117188 52.773438 10.390625 52.226562 Z M 10.390625 52.226562 "/>
<path style=" stroke:none;fill-rule:nonzero;fill:rgb(6.666667%,63.529412%,89.411765%);fill-opacity:1;" d="M 31.308594 3.554688 C 31.65625 3.871094 31.863281 4.195312 32.085938 4.605469 C 32.144531 4.714844 32.207031 4.828125 32.265625 4.941406 C 32.3125 5.023438 32.355469 5.109375 32.402344 5.195312 C 30.707031 6.226562 28.988281 7.21875 27.265625 8.207031 C 26.515625 8.636719 25.769531 9.070312 25.019531 9.5 C 24.722656 9.671875 24.425781 9.84375 24.132812 10.015625 C 23.984375 10.097656 23.835938 10.183594 23.6875 10.269531 C 21.242188 11.679688 21.242188 11.679688 18.796875 13.089844 C 18.652344 13.175781 18.503906 13.261719 18.355469 13.347656 C 18.058594 13.515625 17.765625 13.6875 17.46875 13.859375 C 16.550781 14.386719 15.632812 14.917969 14.714844 15.445312 C 14.265625 15.707031 13.820312 15.964844 13.371094 16.222656 C 12.894531 16.496094 12.414062 16.773438 11.9375 17.050781 C 11.765625 17.152344 11.589844 17.253906 11.414062 17.355469 C 11.273438 17.4375 11.132812 17.519531 10.984375 17.605469 C 10.664062 17.773438 10.664062 17.773438 10.390625 17.773438 C 10.277344 17.578125 10.167969 17.378906 10.058594 17.183594 C 9.964844 17.019531 9.964844 17.019531 9.871094 16.851562 C 9.707031 16.542969 9.707031 16.542969 9.570312 16.132812 C 9.667969 16.078125 9.769531 16.019531 9.871094 15.960938 C 11.738281 14.898438 13.601562 13.832031 15.457031 12.746094 C 16.898438 11.902344 18.339844 11.070312 19.785156 10.238281 C 20.527344 9.8125 21.269531 9.382812 22.011719 8.953125 C 22.308594 8.785156 22.605469 8.613281 22.898438 8.441406 C 23.046875 8.359375 23.195312 8.273438 23.34375 8.1875 C 24.679688 7.417969 24.679688 7.417969 25.121094 7.160156 C 25.417969 6.992188 25.710938 6.820312 26.003906 6.652344 C 26.699219 6.25 27.394531 5.847656 28.089844 5.449219 C 28.421875 5.257812 28.75 5.070312 29.078125 4.878906 C 29.3125 4.746094 29.546875 4.609375 29.78125 4.476562 C 29.921875 4.394531 30.0625 4.316406 30.207031 4.230469 C 30.328125 4.160156 30.453125 4.089844 30.582031 4.015625 C 30.828125 3.871094 31.070312 3.714844 31.308594 3.554688 Z M 31.308594 3.554688 "/>
<path style=" stroke:none;fill-rule:nonzero;fill:rgb(45.098039%,28.235294%,90.588235%);fill-opacity:1;" d="M 59.609375 52.226562 C 59.722656 52.421875 59.832031 52.621094 59.941406 52.816406 C 60.003906 52.925781 60.066406 53.035156 60.128906 53.148438 C 60.292969 53.457031 60.292969 53.457031 60.429688 53.867188 C 52.875 58.226562 52.875 58.226562 45.320312 62.582031 C 45.175781 62.667969 45.027344 62.753906 44.878906 62.839844 C 44.582031 63.007812 44.289062 63.179688 43.996094 63.347656 C 43.300781 63.75 42.605469 64.148438 41.914062 64.550781 C 41.585938 64.742188 41.257812 64.929688 40.929688 65.121094 C 40.695312 65.253906 40.464844 65.390625 40.234375 65.523438 C 40.09375 65.605469 39.953125 65.683594 39.808594 65.769531 C 39.621094 65.875 39.621094 65.875 39.433594 65.984375 C 39.144531 66.148438 38.851562 66.300781 38.554688 66.445312 C 38.417969 66.226562 38.28125 66.007812 38.144531 65.789062 C 38.070312 65.664062 37.992188 65.542969 37.914062 65.417969 C 37.734375 65.078125 37.734375 65.078125 37.734375 64.667969 C 37.832031 64.613281 37.929688 64.558594 38.03125 64.5 C 40.25 63.234375 42.464844 61.960938 44.675781 60.683594 C 45.417969 60.257812 46.15625 59.832031 46.894531 59.40625 C 47.191406 59.234375 47.488281 59.0625 47.78125 58.890625 C 49.5625 57.867188 51.335938 56.839844 53.117188 55.816406 C 53.261719 55.730469 53.410156 55.644531 53.558594 55.558594 C 53.855469 55.390625 54.148438 55.21875 54.441406 55.050781 C 55.140625 54.648438 55.835938 54.246094 56.53125 53.839844 C 56.863281 53.648438 57.195312 53.457031 57.523438 53.261719 C 57.757812 53.125 57.996094 52.988281 58.230469 52.851562 C 58.441406 52.726562 58.441406 52.726562 58.65625 52.601562 C 58.84375 52.492188 58.84375 52.492188 59.035156 52.382812 C 59.335938 52.226562 59.335938 52.226562 59.609375 52.226562 Z M 59.609375 52.226562 "/>
<path style=" stroke:none;fill-rule:nonzero;fill:rgb(20.784314%,50.588235%,89.803922%);fill-opacity:1;" d="M 38.554688 3.554688 C 39.707031 4.15625 40.84375 4.777344 41.960938 5.441406 C 42.847656 5.96875 43.738281 6.484375 44.628906 7 C 44.78125 7.085938 44.933594 7.171875 45.089844 7.261719 C 45.398438 7.441406 45.710938 7.621094 46.019531 7.800781 C 46.769531 8.230469 47.515625 8.660156 48.261719 9.09375 C 48.558594 9.261719 48.855469 9.433594 49.148438 9.605469 C 49.742188 9.945312 50.335938 10.289062 50.929688 10.628906 C 51.074219 10.714844 51.222656 10.800781 51.371094 10.886719 C 51.667969 11.058594 51.964844 11.226562 52.261719 11.398438 C 53.003906 11.828125 53.746094 12.257812 54.492188 12.683594 C 56.476562 13.828125 58.453125 14.976562 60.429688 16.132812 C 60.15625 16.679688 59.882812 17.226562 59.609375 17.773438 C 58.765625 17.550781 58.0625 17.097656 57.320312 16.652344 C 57.023438 16.480469 56.726562 16.304688 56.433594 16.128906 C 56.277344 16.039062 56.125 15.949219 55.96875 15.859375 C 55.230469 15.421875 54.488281 14.996094 53.746094 14.570312 C 53.449219 14.398438 53.148438 14.226562 52.851562 14.050781 C 52.628906 13.925781 52.628906 13.925781 52.402344 13.792969 C 51.660156 13.367188 50.917969 12.9375 50.175781 12.507812 C 49.878906 12.339844 49.582031 12.167969 49.289062 11.996094 C 45.4375 9.773438 41.585938 7.554688 37.734375 5.332031 C 37.734375 4.832031 37.882812 4.636719 38.144531 4.210938 C 38.21875 4.089844 38.296875 3.964844 38.375 3.839844 C 38.464844 3.699219 38.464844 3.699219 38.554688 3.554688 Z M 38.554688 3.554688 "/>
<path style=" stroke:none;fill-rule:nonzero;fill:rgb(40%,32.941176%,90.196078%);fill-opacity:1;" d="M 62.207031 22.421875 C 62.792969 22.421875 63.378906 22.421875 63.984375 22.421875 C 63.984375 30.722656 63.984375 39.023438 63.984375 47.578125 C 63.398438 47.578125 62.8125 47.578125 62.207031 47.578125 C 62.207031 39.277344 62.207031 30.976562 62.207031 22.421875 Z M 62.207031 22.421875 "/>
<path style=" stroke:none;fill-rule:nonzero;fill:rgb(11.764706%,58.431373%,89.411765%);fill-opacity:1;" d="M 6.015625 22.421875 C 6.601562 22.421875 7.1875 22.421875 7.792969 22.421875 C 7.792969 30.722656 7.792969 39.023438 7.792969 47.578125 C 7.207031 47.578125 6.621094 47.578125 6.015625 47.578125 C 6.015625 39.277344 6.015625 30.976562 6.015625 22.421875 Z M 6.015625 22.421875 "/>
<path style=" stroke:none;fill-rule:nonzero;fill:rgb(47.843137%,25.098039%,90.588235%);fill-opacity:1;" d="M 64.292969 48.757812 C 64.960938 49.136719 65.351562 49.597656 65.667969 50.304688 C 65.867188 51.191406 65.808594 51.980469 65.351562 52.773438 C 64.824219 53.363281 64.234375 53.8125 63.429688 53.898438 C 62.519531 53.933594 61.855469 53.738281 61.148438 53.140625 C 60.507812 52.378906 60.359375 51.785156 60.390625 50.808594 C 60.480469 49.984375 60.902344 49.464844 61.523438 48.945312 C 62.4375 48.4375 63.332031 48.324219 64.292969 48.757812 Z M 64.292969 48.757812 "/>
<path style=" stroke:none;fill-rule:nonzero;fill:rgb(19.607843%,50.980392%,89.803922%);fill-opacity:1;" d="M 8.476562 48.945312 C 9.097656 49.464844 9.519531 49.984375 9.609375 50.808594 C 9.640625 51.785156 9.492188 52.378906 8.851562 53.140625 C 8.164062 53.71875 7.488281 53.949219 6.597656 53.914062 C 5.871094 53.804688 5.292969 53.472656 4.800781 52.925781 C 4.308594 52.203125 4.164062 51.597656 4.238281 50.722656 C 4.429688 49.824219 4.855469 49.316406 5.605469 48.808594 C 6.519531 48.28125 7.589844 48.449219 8.476562 48.945312 Z M 8.476562 48.945312 "/>
<path style=" stroke:none;fill-rule:nonzero;fill:rgb(31.764706%,40%,90.196078%);fill-opacity:1;" d="M 64.292969 16.355469 C 64.960938 16.734375 65.351562 17.195312 65.667969 17.902344 C 65.867188 18.789062 65.808594 19.578125 65.351562 20.371094 C 64.824219 20.960938 64.234375 21.410156 63.429688 21.496094 C 62.519531 21.53125 61.855469 21.335938 61.148438 20.738281 C 60.507812 19.976562 60.359375 19.382812 60.390625 18.40625 C 60.480469 17.582031 60.902344 17.0625 61.523438 16.542969 C 62.4375 16.035156 63.332031 15.921875 64.292969 16.355469 Z M 64.292969 16.355469 "/>
<path style=" stroke:none;fill-rule:nonzero;fill:rgb(3.529412%,66.27451%,89.411765%);fill-opacity:1;" d="M 8.476562 16.542969 C 9.097656 17.0625 9.519531 17.582031 9.609375 18.40625 C 9.640625 19.382812 9.492188 19.976562 8.851562 20.738281 C 8.164062 21.316406 7.488281 21.546875 6.597656 21.511719 C 5.871094 21.402344 5.292969 21.070312 4.800781 20.523438 C 4.308594 19.800781 4.164062 19.195312 4.238281 18.320312 C 4.429688 17.421875 4.855469 16.914062 5.605469 16.40625 C 6.519531 15.878906 7.589844 16.046875 8.476562 16.542969 Z M 8.476562 16.542969 "/>
<path style=" stroke:none;fill-rule:nonzero;fill:rgb(41.960784%,30.980392%,90.196078%);fill-opacity:1;" d="M 36.28125 64.949219 C 36.871094 65.386719 37.363281 65.878906 37.597656 66.582031 C 37.726562 68.3125 37.726562 68.3125 37.1875 69.042969 C 36.5 69.730469 36.015625 70.019531 35.027344 70.035156 C 34.230469 70.023438 33.714844 69.945312 33.132812 69.363281 C 32.441406 68.59375 32.359375 68.011719 32.375 66.984375 C 32.429688 66.210938 32.734375 65.808594 33.289062 65.308594 C 34.121094 64.613281 35.28125 64.632812 36.28125 64.949219 Z M 36.28125 64.949219 "/>
<path style=" stroke:none;fill-rule:nonzero;fill:rgb(9.411765%,60.392157%,89.411765%);fill-opacity:1;" d="M 36.28125 0.144531 C 36.871094 0.582031 37.363281 1.074219 37.597656 1.777344 C 37.726562 3.507812 37.726562 3.507812 37.1875 4.238281 C 36.5 4.925781 36.015625 5.214844 35.027344 5.230469 C 34.230469 5.21875 33.714844 5.140625 33.132812 4.558594 C 32.441406 3.789062 32.359375 3.207031 32.375 2.179688 C 32.429688 1.40625 32.734375 1.003906 33.289062 0.503906 C 34.121094 -0.191406 35.28125 -0.171875 36.28125 0.144531 Z M 36.28125 0.144531 "/>
</g>
</svg>
