<?xml version="1.0" encoding="UTF-8"?>
<svg xmlns="http://www.w3.org/2000/svg" xmlns:xlink="http://www.w3.org/1999/xlink" width="50px" height="50px" viewBox="0 0 50 50" version="1.1">
<g id="surface1">
<path style=" stroke:none;fill-rule:nonzero;fill:rgb(33.333333%,38.823529%,90.196078%);fill-opacity:1;" d="M 38.28125 17.773438 C 38.28125 22.703125 38.28125 27.632812 38.28125 32.714844 C 37.476562 33.164062 36.671875 33.617188 35.839844 34.082031 C 35.230469 34.4375 35.230469 34.4375 34.621094 34.796875 C 34.074219 35.125 33.519531 35.441406 32.964844 35.761719 C 32.855469 35.824219 32.75 35.886719 32.636719 35.949219 C 32.414062 36.078125 32.195312 36.203125 31.972656 36.332031 C 31.332031 36.699219 30.695312 37.070312 30.058594 37.4375 C 29.566406 37.71875 29.078125 38.003906 28.585938 38.285156 C 28.414062 38.382812 28.242188 38.484375 28.066406 38.582031 C 27.851562 38.707031 27.636719 38.832031 27.421875 38.957031 C 26.867188 39.273438 26.320312 39.597656 25.777344 39.933594 C 25.585938 40.039062 25.585938 40.039062 25.390625 40.039062 C 25.390625 35.109375 25.390625 30.179688 25.390625 25.097656 C 25.96875 24.773438 26.550781 24.453125 27.148438 24.121094 C 27.523438 23.90625 27.898438 23.6875 28.273438 23.46875 C 28.472656 23.351562 28.671875 23.234375 28.875 23.117188 C 28.976562 23.054688 29.078125 22.996094 29.179688 22.933594 C 29.703125 22.632812 30.226562 22.328125 30.75 22.027344 C 30.855469 21.96875 30.960938 21.90625 31.070312 21.84375 C 31.28125 21.71875 31.496094 21.597656 31.710938 21.472656 C 32.34375 21.109375 32.980469 20.742188 33.613281 20.375 C 34.105469 20.09375 34.59375 19.808594 35.085938 19.527344 C 35.257812 19.429688 35.429688 19.328125 35.605469 19.230469 C 35.820312 19.105469 36.035156 18.980469 36.25 18.855469 C 36.804688 18.539062 37.351562 18.214844 37.894531 17.878906 C 38.085938 17.773438 38.085938 17.773438 38.28125 17.773438 Z M 38.28125 17.773438 "/>
<path style=" stroke:none;fill-rule:nonzero;fill:rgb(24.313725%,47.058824%,89.803922%);fill-opacity:1;" d="M 11.71875 17.773438 C 12.066406 17.914062 12.359375 18.046875 12.679688 18.226562 C 12.769531 18.277344 12.863281 18.328125 12.953125 18.382812 C 13.152344 18.496094 13.347656 18.609375 13.542969 18.726562 C 14.023438 19.011719 14.472656 19.257812 15.011719 19.417969 C 15.574219 19.605469 16.019531 19.765625 16.308594 20.3125 C 16.492188 21.171875 16.4375 22.089844 16.390625 22.957031 C 16.300781 23.835938 16.300781 23.835938 16.554688 24.644531 C 16.789062 24.804688 17.019531 24.898438 17.285156 25 C 17.496094 25.125 17.703125 25.25 17.914062 25.378906 C 18.078125 25.476562 18.246094 25.574219 18.414062 25.671875 C 18.585938 25.769531 18.757812 25.871094 18.929688 25.972656 C 19.039062 26.035156 19.148438 26.101562 19.261719 26.164062 C 19.359375 26.222656 19.460938 26.28125 19.5625 26.339844 C 19.835938 26.492188 19.835938 26.492188 20.214844 26.464844 C 20.246094 25.242188 20.28125 24.015625 20.3125 22.753906 C 20.972656 22.972656 20.972656 22.972656 21.246094 23.140625 C 22.359375 23.8125 23.480469 24.453125 24.609375 25.097656 C 24.609375 30.027344 24.609375 34.960938 24.609375 40.039062 C 24.246094 39.894531 23.933594 39.75 23.597656 39.558594 C 23.449219 39.476562 23.449219 39.476562 23.292969 39.390625 C 23.1875 39.332031 23.082031 39.269531 22.972656 39.210938 C 22.863281 39.148438 22.753906 39.085938 22.640625 39.019531 C 21.976562 38.648438 21.316406 38.269531 20.664062 37.878906 C 20.046875 37.515625 19.425781 37.15625 18.804688 36.796875 C 18.695312 36.734375 18.589844 36.671875 18.476562 36.609375 C 18.144531 36.417969 17.8125 36.226562 17.480469 36.035156 C 17.054688 35.789062 16.625 35.542969 16.199219 35.296875 C 16.09375 35.238281 15.992188 35.175781 15.882812 35.113281 C 15.046875 34.632812 14.210938 34.144531 13.378906 33.65625 C 13.289062 33.605469 13.199219 33.550781 13.105469 33.5 C 13.03125 33.453125 12.953125 33.40625 12.871094 33.359375 C 12.488281 33.140625 12.105469 32.929688 11.71875 32.714844 C 11.71875 27.785156 11.71875 22.851562 11.71875 17.773438 Z M 11.71875 17.773438 "/>
<path style=" stroke:none;fill-rule:nonzero;fill:rgb(15.686275%,54.901961%,89.803922%);fill-opacity:1;" d="M 25.136719 9.730469 C 25.425781 9.878906 25.707031 10.035156 25.988281 10.195312 C 26.046875 10.230469 26.101562 10.261719 26.160156 10.296875 C 26.339844 10.398438 26.523438 10.503906 26.703125 10.609375 C 26.820312 10.675781 26.9375 10.742188 27.058594 10.8125 C 27.292969 10.945312 27.527344 11.082031 27.765625 11.21875 C 28.339844 11.550781 28.914062 11.878906 29.492188 12.207031 C 29.367188 12.582031 29.25 12.609375 28.910156 12.792969 C 28.808594 12.847656 28.707031 12.90625 28.601562 12.960938 C 28.492188 13.019531 28.382812 13.082031 28.273438 13.140625 C 28.046875 13.265625 27.820312 13.390625 27.59375 13.515625 C 27.429688 13.605469 27.429688 13.605469 27.257812 13.699219 C 26.878906 13.910156 26.503906 14.125 26.128906 14.347656 C 25.449219 14.753906 24.765625 15.152344 24.078125 15.546875 C 23.96875 15.609375 23.863281 15.671875 23.75 15.734375 C 23.527344 15.863281 23.308594 15.988281 23.085938 16.117188 C 22.445312 16.484375 21.808594 16.855469 21.171875 17.222656 C 20.679688 17.507812 20.1875 17.789062 19.695312 18.074219 C 19.519531 18.171875 19.347656 18.273438 19.171875 18.375 C 18.953125 18.5 18.734375 18.625 18.519531 18.75 C 18.371094 18.835938 18.371094 18.835938 18.21875 18.921875 C 18.125 18.976562 18.03125 19.027344 17.933594 19.082031 C 17.640625 19.257812 17.359375 19.449219 17.082031 19.652344 C 16.792969 19.765625 16.605469 19.707031 16.308594 19.628906 C 16.015625 19.488281 16.015625 19.488281 15.703125 19.308594 C 15.648438 19.277344 15.59375 19.242188 15.535156 19.210938 C 15.355469 19.105469 15.175781 19 14.996094 18.898438 C 14.875 18.824219 14.75 18.753906 14.625 18.683594 C 13.78125 18.191406 12.941406 17.695312 12.109375 17.1875 C 12.445312 16.90625 12.78125 16.679688 13.160156 16.464844 C 13.269531 16.402344 13.378906 16.339844 13.492188 16.277344 C 13.550781 16.242188 13.609375 16.210938 13.667969 16.179688 C 13.976562 16.003906 14.285156 15.828125 14.59375 15.652344 C 14.6875 15.601562 14.6875 15.601562 14.785156 15.546875 C 15.363281 15.21875 15.941406 14.882812 16.515625 14.542969 C 17.320312 14.074219 18.125 13.605469 18.933594 13.140625 C 19.039062 13.082031 19.144531 13.019531 19.253906 12.957031 C 19.789062 12.648438 20.328125 12.339844 20.863281 12.027344 C 20.972656 11.96875 21.078125 11.90625 21.1875 11.84375 C 21.398438 11.71875 21.613281 11.597656 21.824219 11.476562 C 22.347656 11.175781 22.863281 10.871094 23.375 10.554688 C 23.472656 10.496094 23.570312 10.4375 23.671875 10.375 C 23.855469 10.261719 24.042969 10.144531 24.226562 10.027344 C 24.308594 9.976562 24.390625 9.925781 24.472656 9.875 C 24.582031 9.808594 24.582031 9.808594 24.691406 9.738281 C 24.902344 9.667969 24.902344 9.667969 25.136719 9.730469 Z M 25.136719 9.730469 "/>
<path style=" stroke:none;fill-rule:nonzero;fill:rgb(25.098039%,46.27451%,89.803922%);fill-opacity:1;" d="M 33.742188 14.6875 C 33.820312 14.742188 33.902344 14.792969 33.984375 14.84375 C 34.101562 14.90625 34.222656 14.96875 34.339844 15.03125 C 34.480469 15.109375 34.621094 15.1875 34.757812 15.265625 C 34.835938 15.304688 34.910156 15.347656 34.984375 15.390625 C 35.964844 15.941406 36.925781 16.515625 37.890625 17.089844 C 37.644531 17.363281 37.375 17.523438 37.054688 17.707031 C 36.941406 17.769531 36.832031 17.832031 36.71875 17.894531 C 36.660156 17.925781 36.601562 17.960938 36.542969 17.996094 C 36.230469 18.167969 35.917969 18.347656 35.609375 18.523438 C 35.542969 18.558594 35.480469 18.59375 35.417969 18.632812 C 34.835938 18.960938 34.257812 19.296875 33.679688 19.636719 C 32.34375 20.417969 31 21.191406 29.660156 21.960938 C 29.445312 22.085938 29.230469 22.207031 29.015625 22.332031 C 28.804688 22.453125 28.59375 22.574219 28.382812 22.695312 C 27.84375 23.007812 27.308594 23.320312 26.777344 23.644531 C 26.671875 23.710938 26.5625 23.773438 26.453125 23.839844 C 26.25 23.964844 26.046875 24.089844 25.84375 24.214844 C 25.753906 24.269531 25.664062 24.324219 25.570312 24.382812 C 25.488281 24.429688 25.410156 24.480469 25.328125 24.527344 C 25.097656 24.609375 25.097656 24.609375 24.855469 24.542969 C 24.773438 24.5 24.691406 24.457031 24.609375 24.414062 C 24.492188 24.351562 24.492188 24.351562 24.371094 24.289062 C 24.289062 24.242188 24.207031 24.195312 24.121094 24.148438 C 24.03125 24.097656 23.9375 24.042969 23.84375 23.988281 C 23.746094 23.933594 23.648438 23.878906 23.546875 23.820312 C 23.449219 23.765625 23.347656 23.707031 23.246094 23.648438 C 23.046875 23.535156 22.84375 23.421875 22.644531 23.304688 C 22.46875 23.207031 22.292969 23.105469 22.117188 23.003906 C 21.90625 22.886719 21.699219 22.765625 21.492188 22.644531 C 21.429688 22.609375 21.367188 22.574219 21.304688 22.539062 C 21.140625 22.441406 21.140625 22.441406 20.898438 22.265625 C 20.898438 22.167969 20.898438 22.070312 20.898438 21.972656 C 21.121094 21.820312 21.335938 21.6875 21.570312 21.558594 C 21.679688 21.496094 21.679688 21.496094 21.792969 21.429688 C 21.957031 21.335938 22.121094 21.242188 22.285156 21.148438 C 22.675781 20.929688 23.066406 20.703125 23.453125 20.480469 C 23.78125 20.289062 24.105469 20.101562 24.433594 19.914062 C 25.078125 19.542969 25.722656 19.171875 26.367188 18.796875 C 26.578125 18.675781 26.789062 18.554688 27 18.433594 C 27.105469 18.371094 27.210938 18.3125 27.320312 18.25 C 28.273438 17.699219 28.273438 17.699219 28.589844 17.515625 C 28.800781 17.394531 29.007812 17.273438 29.21875 17.152344 C 29.710938 16.867188 30.203125 16.585938 30.695312 16.300781 C 30.871094 16.203125 31.042969 16.101562 31.21875 16 C 31.4375 15.875 31.65625 15.75 31.871094 15.625 C 31.972656 15.570312 32.070312 15.511719 32.171875 15.453125 C 32.265625 15.398438 32.359375 15.347656 32.457031 15.292969 C 32.695312 15.148438 32.917969 14.996094 33.148438 14.839844 C 33.460938 14.644531 33.460938 14.644531 33.742188 14.6875 Z M 33.742188 14.6875 "/>
<path style=" stroke:none;fill-rule:nonzero;fill:rgb(20.392157%,50.588235%,89.803922%);fill-opacity:1;" d="M 30.664062 12.890625 C 30.929688 13.019531 30.929688 13.019531 31.191406 13.179688 C 31.285156 13.234375 31.382812 13.292969 31.480469 13.351562 C 31.625 13.441406 31.625 13.441406 31.773438 13.53125 C 31.875 13.589844 31.972656 13.652344 32.078125 13.714844 C 32.324219 13.863281 32.566406 14.011719 32.8125 14.160156 C 32.6875 14.535156 32.570312 14.5625 32.230469 14.746094 C 32.128906 14.800781 32.027344 14.859375 31.921875 14.914062 C 31.757812 15.003906 31.757812 15.003906 31.59375 15.09375 C 31.367188 15.21875 31.140625 15.34375 30.914062 15.46875 C 30.75 15.558594 30.75 15.558594 30.578125 15.652344 C 30.199219 15.863281 29.824219 16.078125 29.449219 16.300781 C 28.769531 16.707031 28.085938 17.105469 27.398438 17.5 C 27.289062 17.5625 27.183594 17.625 27.070312 17.6875 C 26.847656 17.816406 26.628906 17.941406 26.40625 18.070312 C 25.765625 18.4375 25.128906 18.808594 24.492188 19.175781 C 24.003906 19.457031 23.515625 19.738281 23.027344 20.019531 C 22.855469 20.117188 22.6875 20.214844 22.515625 20.3125 C 22.304688 20.433594 22.09375 20.554688 21.882812 20.675781 C 21.683594 20.789062 21.492188 20.902344 21.296875 21.019531 C 20.996094 21.191406 20.996094 21.191406 20.644531 21.34375 C 20.027344 21.621094 20.027344 21.621094 19.660156 22.160156 C 19.550781 22.714844 19.578125 23.269531 19.597656 23.828125 C 19.601562 24 19.601562 24.167969 19.601562 24.339844 C 19.605469 24.753906 19.613281 25.171875 19.628906 25.585938 C 19.355469 25.457031 19.085938 25.320312 18.816406 25.179688 C 18.566406 25.050781 18.316406 24.941406 18.054688 24.835938 C 17.652344 24.652344 17.273438 24.472656 16.992188 24.121094 C 16.761719 23.5 16.855469 22.808594 16.902344 22.160156 C 16.90625 21.980469 16.914062 21.804688 16.921875 21.625 C 16.9375 21.1875 16.960938 20.75 16.992188 20.3125 C 17.101562 20.25 17.214844 20.191406 17.328125 20.128906 C 18.28125 19.605469 19.21875 19.066406 20.15625 18.515625 C 20.921875 18.066406 21.691406 17.625 22.460938 17.1875 C 23.410156 16.648438 24.355469 16.101562 25.296875 15.550781 C 26.136719 15.058594 26.980469 14.570312 27.828125 14.082031 C 28.273438 13.828125 28.714844 13.574219 29.152344 13.304688 C 29.21875 13.265625 29.28125 13.230469 29.34375 13.191406 C 29.5 13.09375 29.65625 13 29.8125 12.902344 C 30.148438 12.765625 30.3125 12.804688 30.664062 12.890625 Z M 30.664062 12.890625 "/>
<path style=" stroke:none;fill-rule:nonzero;fill:rgb(30.980392%,40.784314%,90.196078%);fill-opacity:1;" d="M 7.421875 37.304688 C 8.023438 37.464844 8.519531 37.78125 9.046875 38.097656 C 9.257812 38.222656 9.46875 38.347656 9.679688 38.472656 C 9.789062 38.535156 9.898438 38.601562 10.011719 38.667969 C 10.519531 38.96875 11.035156 39.257812 11.546875 39.550781 C 12.554688 40.125 13.558594 40.703125 14.558594 41.289062 C 15.585938 41.886719 16.617188 42.484375 17.648438 43.078125 C 18.179688 43.382812 18.707031 43.6875 19.238281 43.992188 C 19.445312 44.113281 19.65625 44.234375 19.863281 44.355469 C 20.925781 44.96875 21.984375 45.578125 23.046875 46.191406 C 23.046875 46.550781 22.941406 46.6875 22.753906 46.992188 C 22.699219 47.078125 22.644531 47.167969 22.589844 47.257812 C 22.546875 47.324219 22.503906 47.390625 22.460938 47.460938 C 21.636719 47.03125 20.828125 46.585938 20.027344 46.113281 C 19.394531 45.738281 18.757812 45.367188 18.121094 45 C 18.011719 44.9375 17.90625 44.875 17.792969 44.8125 C 17.570312 44.683594 17.351562 44.558594 17.128906 44.429688 C 16.59375 44.121094 16.0625 43.8125 15.527344 43.507812 C 14.890625 43.136719 14.253906 42.769531 13.617188 42.402344 C 12.496094 41.757812 11.378906 41.109375 10.261719 40.460938 C 9.125 39.792969 7.980469 39.136719 6.835938 38.476562 C 7.03125 38.085938 7.226562 37.695312 7.421875 37.304688 Z M 7.421875 37.304688 "/>
<path style=" stroke:none;fill-rule:nonzero;fill:rgb(6.666667%,63.529412%,89.411765%);fill-opacity:1;" d="M 22.363281 2.539062 C 22.613281 2.765625 22.761719 2.996094 22.917969 3.289062 C 22.960938 3.367188 23.003906 3.449219 23.046875 3.527344 C 23.078125 3.589844 23.113281 3.648438 23.144531 3.710938 C 21.933594 4.449219 20.703125 5.15625 19.476562 5.863281 C 18.941406 6.171875 18.40625 6.480469 17.871094 6.789062 C 17.660156 6.910156 17.449219 7.03125 17.234375 7.152344 C 17.132812 7.214844 17.027344 7.273438 16.917969 7.335938 C 15.171875 8.34375 15.171875 8.34375 13.429688 9.351562 C 13.324219 9.410156 13.21875 9.472656 13.109375 9.535156 C 12.898438 9.65625 12.6875 9.777344 12.476562 9.898438 C 11.824219 10.277344 11.167969 10.65625 10.511719 11.035156 C 10.191406 11.21875 9.871094 11.402344 9.550781 11.585938 C 9.210938 11.785156 8.867188 11.980469 8.527344 12.179688 C 8.402344 12.25 8.277344 12.324219 8.15625 12.394531 C 8.050781 12.457031 7.949219 12.515625 7.847656 12.574219 C 7.617188 12.695312 7.617188 12.695312 7.421875 12.695312 C 7.34375 12.554688 7.261719 12.414062 7.183594 12.273438 C 7.117188 12.15625 7.117188 12.15625 7.050781 12.039062 C 6.933594 11.816406 6.933594 11.816406 6.835938 11.523438 C 6.90625 11.484375 6.976562 11.441406 7.050781 11.402344 C 8.382812 10.640625 9.714844 9.878906 11.042969 9.101562 C 12.070312 8.503906 13.101562 7.90625 14.132812 7.3125 C 14.664062 7.007812 15.191406 6.703125 15.722656 6.398438 C 15.933594 6.273438 16.144531 6.152344 16.359375 6.03125 C 16.460938 5.96875 16.566406 5.910156 16.675781 5.847656 C 17.625 5.296875 17.625 5.296875 17.945312 5.113281 C 18.15625 4.992188 18.363281 4.871094 18.574219 4.75 C 19.070312 4.464844 19.566406 4.179688 20.066406 3.890625 C 20.300781 3.757812 20.535156 3.621094 20.769531 3.484375 C 20.9375 3.390625 21.105469 3.292969 21.269531 3.199219 C 21.371094 3.140625 21.472656 3.082031 21.574219 3.023438 C 21.664062 2.972656 21.753906 2.921875 21.84375 2.867188 C 22.019531 2.765625 22.191406 2.652344 22.363281 2.539062 Z M 22.363281 2.539062 "/>
<path style=" stroke:none;fill-rule:nonzero;fill:rgb(45.098039%,28.235294%,90.588235%);fill-opacity:1;" d="M 42.578125 37.304688 C 42.65625 37.445312 42.738281 37.585938 42.816406 37.726562 C 42.859375 37.804688 42.90625 37.882812 42.949219 37.960938 C 43.066406 38.183594 43.066406 38.183594 43.164062 38.476562 C 37.769531 41.589844 37.769531 41.589844 32.375 44.703125 C 32.269531 44.761719 32.164062 44.824219 32.054688 44.886719 C 31.84375 45.007812 31.636719 45.128906 31.425781 45.25 C 30.929688 45.535156 30.433594 45.820312 29.9375 46.109375 C 29.703125 46.242188 29.46875 46.378906 29.234375 46.515625 C 29.070312 46.609375 28.902344 46.707031 28.738281 46.800781 C 28.636719 46.859375 28.539062 46.917969 28.433594 46.976562 C 28.300781 47.054688 28.300781 47.054688 28.167969 47.132812 C 27.960938 47.25 27.753906 47.355469 27.539062 47.460938 C 27.441406 47.304688 27.34375 47.148438 27.246094 46.992188 C 27.191406 46.902344 27.136719 46.816406 27.082031 46.726562 C 26.953125 46.484375 26.953125 46.484375 26.953125 46.191406 C 27.023438 46.152344 27.09375 46.113281 27.164062 46.070312 C 28.75 45.167969 30.332031 44.257812 31.914062 43.34375 C 32.441406 43.039062 32.96875 42.734375 33.496094 42.429688 C 33.707031 42.308594 33.917969 42.1875 34.132812 42.066406 C 35.398438 41.332031 36.671875 40.601562 37.9375 39.867188 C 38.042969 39.808594 38.148438 39.746094 38.257812 39.683594 C 38.46875 39.5625 38.675781 39.441406 38.886719 39.320312 C 39.386719 39.035156 39.882812 38.746094 40.378906 38.457031 C 40.617188 38.320312 40.851562 38.183594 41.089844 38.046875 C 41.257812 37.949219 41.425781 37.847656 41.59375 37.75 C 41.742188 37.664062 41.742188 37.664062 41.898438 37.574219 C 42.03125 37.496094 42.03125 37.496094 42.167969 37.414062 C 42.382812 37.304688 42.382812 37.304688 42.578125 37.304688 Z M 42.578125 37.304688 "/>
<path style=" stroke:none;fill-rule:nonzero;fill:rgb(20.784314%,50.588235%,89.803922%);fill-opacity:1;" d="M 27.539062 2.539062 C 28.363281 2.96875 29.171875 3.414062 29.972656 3.886719 C 30.605469 4.261719 31.242188 4.632812 31.878906 5 C 31.988281 5.0625 32.09375 5.125 32.207031 5.1875 C 32.429688 5.316406 32.648438 5.441406 32.871094 5.570312 C 33.40625 5.878906 33.9375 6.1875 34.472656 6.492188 C 34.683594 6.617188 34.894531 6.738281 35.109375 6.859375 C 35.53125 7.105469 35.953125 7.347656 36.375 7.59375 C 36.480469 7.652344 36.585938 7.714844 36.695312 7.777344 C 36.90625 7.898438 37.117188 8.019531 37.328125 8.140625 C 37.859375 8.449219 38.390625 8.753906 38.921875 9.0625 C 40.339844 9.878906 41.753906 10.699219 43.164062 11.523438 C 42.96875 11.914062 42.773438 12.304688 42.578125 12.695312 C 41.972656 12.535156 41.472656 12.210938 40.941406 11.894531 C 40.730469 11.769531 40.519531 11.644531 40.308594 11.523438 C 40.199219 11.457031 40.089844 11.394531 39.976562 11.328125 C 39.449219 11.015625 38.921875 10.710938 38.390625 10.40625 C 38.179688 10.285156 37.964844 10.160156 37.75 10.039062 C 37.59375 9.945312 37.59375 9.945312 37.429688 9.851562 C 36.898438 9.546875 36.371094 9.242188 35.839844 8.9375 C 35.628906 8.8125 35.417969 8.691406 35.203125 8.570312 C 32.453125 6.984375 29.703125 5.394531 26.953125 3.808594 C 26.953125 3.449219 27.058594 3.3125 27.246094 3.007812 C 27.300781 2.921875 27.355469 2.832031 27.410156 2.742188 C 27.472656 2.640625 27.472656 2.640625 27.539062 2.539062 Z M 27.539062 2.539062 "/>
<path style=" stroke:none;fill-rule:nonzero;fill:rgb(40%,32.941176%,90.196078%);fill-opacity:1;" d="M 44.433594 16.015625 C 44.851562 16.015625 45.273438 16.015625 45.703125 16.015625 C 45.703125 21.945312 45.703125 27.875 45.703125 33.984375 C 45.285156 33.984375 44.867188 33.984375 44.433594 33.984375 C 44.433594 28.054688 44.433594 22.125 44.433594 16.015625 Z M 44.433594 16.015625 "/>
<path style=" stroke:none;fill-rule:nonzero;fill:rgb(11.764706%,58.431373%,89.411765%);fill-opacity:1;" d="M 4.296875 16.015625 C 4.714844 16.015625 5.132812 16.015625 5.566406 16.015625 C 5.566406 21.945312 5.566406 27.875 5.566406 33.984375 C 5.148438 33.984375 4.726562 33.984375 4.296875 33.984375 C 4.296875 28.054688 4.296875 22.125 4.296875 16.015625 Z M 4.296875 16.015625 "/>
<path style=" stroke:none;fill-rule:nonzero;fill:rgb(47.843137%,25.098039%,90.588235%);fill-opacity:1;" d="M 45.921875 34.828125 C 46.398438 35.097656 46.679688 35.425781 46.90625 35.929688 C 47.046875 36.566406 47.007812 37.128906 46.679688 37.695312 C 46.300781 38.117188 45.878906 38.4375 45.304688 38.496094 C 44.65625 38.523438 44.183594 38.382812 43.675781 37.957031 C 43.222656 37.414062 43.113281 36.992188 43.136719 36.289062 C 43.199219 35.703125 43.503906 35.332031 43.945312 34.960938 C 44.597656 34.597656 45.234375 34.515625 45.921875 34.828125 Z M 45.921875 34.828125 "/>
<path style=" stroke:none;fill-rule:nonzero;fill:rgb(19.607843%,50.980392%,89.803922%);fill-opacity:1;" d="M 6.054688 34.960938 C 6.496094 35.332031 6.800781 35.703125 6.863281 36.289062 C 6.886719 36.992188 6.777344 37.414062 6.324219 37.957031 C 5.832031 38.371094 5.351562 38.535156 4.714844 38.511719 C 4.195312 38.429688 3.78125 38.195312 3.429688 37.804688 C 3.078125 37.289062 2.972656 36.855469 3.027344 36.230469 C 3.164062 35.589844 3.46875 35.226562 4.003906 34.863281 C 4.65625 34.484375 5.421875 34.605469 6.054688 34.960938 Z M 6.054688 34.960938 "/>
<path style=" stroke:none;fill-rule:nonzero;fill:rgb(31.764706%,40%,90.196078%);fill-opacity:1;" d="M 45.921875 11.683594 C 46.398438 11.953125 46.679688 12.28125 46.90625 12.785156 C 47.046875 13.421875 47.007812 13.984375 46.679688 14.550781 C 46.300781 14.972656 45.878906 15.292969 45.304688 15.351562 C 44.65625 15.378906 44.183594 15.238281 43.675781 14.8125 C 43.222656 14.269531 43.113281 13.847656 43.136719 13.144531 C 43.199219 12.558594 43.503906 12.1875 43.945312 11.816406 C 44.597656 11.453125 45.234375 11.371094 45.921875 11.683594 Z M 45.921875 11.683594 "/>
<path style=" stroke:none;fill-rule:nonzero;fill:rgb(3.529412%,66.27451%,89.411765%);fill-opacity:1;" d="M 6.054688 11.816406 C 6.496094 12.1875 6.800781 12.558594 6.863281 13.144531 C 6.886719 13.847656 6.777344 14.269531 6.324219 14.8125 C 5.832031 15.226562 5.351562 15.390625 4.714844 15.367188 C 4.195312 15.285156 3.78125 15.050781 3.429688 14.660156 C 3.078125 14.144531 2.972656 13.710938 3.027344 13.085938 C 3.164062 12.445312 3.46875 12.082031 4.003906 11.71875 C 4.65625 11.339844 5.421875 11.460938 6.054688 11.816406 Z M 6.054688 11.816406 "/>
<path style=" stroke:none;fill-rule:nonzero;fill:rgb(41.960784%,30.980392%,90.196078%);fill-opacity:1;" d="M 25.914062 46.394531 C 26.335938 46.703125 26.6875 47.054688 26.855469 47.558594 C 26.949219 48.792969 26.949219 48.792969 26.5625 49.316406 C 26.070312 49.808594 25.726562 50.015625 25.019531 50.023438 C 24.449219 50.015625 24.082031 49.960938 23.667969 49.546875 C 23.171875 48.996094 23.113281 48.582031 23.125 47.847656 C 23.164062 47.292969 23.382812 47.007812 23.78125 46.648438 C 24.371094 46.152344 25.199219 46.167969 25.914062 46.394531 Z M 25.914062 46.394531 "/>
<path style=" stroke:none;fill-rule:nonzero;fill:rgb(9.411765%,60.392157%,89.411765%);fill-opacity:1;" d="M 25.914062 0.105469 C 26.335938 0.414062 26.6875 0.765625 26.855469 1.269531 C 26.949219 2.503906 26.949219 2.503906 26.5625 3.027344 C 26.070312 3.519531 25.726562 3.726562 25.019531 3.734375 C 24.449219 3.726562 24.082031 3.671875 23.667969 3.257812 C 23.171875 2.707031 23.113281 2.292969 23.125 1.558594 C 23.164062 1.003906 23.382812 0.71875 23.78125 0.359375 C 24.371094 -0.136719 25.199219 -0.121094 25.914062 0.105469 Z M 25.914062 0.105469 "/>
</g>
</svg>
